<svg width="145" height="140" viewBox="0 0 145 140" fill="none" xmlns="http://www.w3.org/2000/svg">
<path d="M0 138V1.77322H47.4152V27.6707H48.8306C51.3075 18.0921 55.2293 11.0859 60.596 6.6514C66.0218 2.21689 72.3616 0 79.615 0C81.7383 0 83.8315 0.177027 85.8961 0.531817C88.0187 0.827842 90.0533 1.27078 92 1.8621V43.6347C89.5815 42.8069 86.6039 42.1862 83.0651 41.7726C79.5263 41.3583 76.4894 41.1512 73.9537 41.1512C69.1767 41.1512 64.8715 42.2457 61.0382 44.4332C57.264 46.5612 54.2857 49.5773 52.1037 53.4792C49.9216 57.3224 48.8306 61.8458 48.8306 67.0487V138H0Z" fill="#5B81FA"/>
<path d="M145 1V138.214H97.5847V112.129H96.1692C93.6921 121.777 89.7701 128.834 84.404 133.3C78.9779 137.767 72.6381 140 65.3847 140C63.2614 140 61.1679 139.822 59.1039 139.464C56.9807 139.166 54.9462 138.72 53 138.124V96.0491C55.4179 96.8829 58.3962 97.5081 61.9346 97.9247C65.4734 98.342 68.5103 98.5506 71.046 98.5506C75.823 98.5506 80.1282 97.4482 83.9615 95.2448C87.7355 93.1014 90.7137 90.0635 92.8964 86.1332C95.0782 82.2622 96.1692 77.706 96.1692 72.4655V1H145Z" fill="#5B81FA"/>
<path d="M71.4045 93V48H74.2564V93H71.4045ZM78.2721 63.2932C78.1568 62.0042 77.6407 61.0018 76.7248 60.2872C75.8211 59.5612 74.5287 59.1971 72.8478 59.1971C71.735 59.1971 70.8079 59.3436 70.0663 59.6364C69.3248 59.9293 68.7679 60.3346 68.3977 60.8502C68.0264 61.3535 67.8346 61.934 67.8234 62.5899C67.7999 63.1292 67.905 63.6036 68.1365 64.014C68.3803 64.4234 68.7271 64.7875 69.18 65.103C69.643 65.4083 70.2 65.6774 70.8487 65.9125C71.4974 66.1466 72.2277 66.3518 73.0396 66.5272L76.0995 67.2305C77.861 67.6172 79.4144 68.1328 80.7588 68.7773C82.1143 69.4218 83.2506 70.1891 84.1665 71.0801C85.0937 71.971 85.7944 72.9961 86.2697 74.1562C86.745 75.3164 86.9888 76.6168 87 78.0584C86.9888 80.3323 86.4207 82.2834 85.2966 83.9117C84.1716 85.5411 82.5549 86.7889 80.4456 87.6561C78.3475 88.5234 75.8149 88.9565 72.8478 88.9565C69.8695 88.9565 67.2726 88.5059 65.0593 87.6035C62.8449 86.7012 61.1242 85.3297 59.8951 83.4899C58.6671 81.6502 58.0347 79.3237 58 76.5116H66.2414C66.3108 77.6717 66.6178 78.639 67.1625 79.4124C67.7071 80.1859 68.4548 80.7716 69.4054 81.1697C70.3672 81.5677 71.48 81.7678 72.7438 81.7678C73.9025 81.7678 74.8878 81.609 75.6997 81.2924C76.5218 80.9768 77.1542 80.5365 77.5948 79.9745C78.0344 79.4114 78.2608 78.7669 78.2721 78.0409C78.2608 77.3613 78.0517 76.7807 77.6468 76.3002C77.2409 75.8083 76.6146 75.3865 75.769 75.0348C74.9347 74.6718 73.8678 74.3377 72.5694 74.0335L68.8495 73.1539C65.7661 72.4392 63.3375 71.2853 61.5648 69.691C59.7911 68.0864 58.9098 65.9177 58.9221 63.188C58.9098 60.9606 59.5014 59.0095 60.6948 57.3337C61.8892 55.6579 63.5405 54.3514 65.6498 53.414C67.7602 52.4766 70.1653 52.0084 72.8652 52.0084C75.6242 52.0084 78.0171 52.4828 80.0458 53.4315C82.0858 54.3689 83.6677 55.6879 84.7918 57.3873C85.9168 59.0858 86.49 61.0544 86.5135 63.2932H78.2721Z" fill="#FED576"/>
</svg>
