<svg width="268" height="228" viewBox="0 0 268 228" fill="none" xmlns="http://www.w3.org/2000/svg">
<path d="M231.236 18.2087C231.404 16.5698 233.795 16.5698 233.962 18.2087C234.754 25.9325 240.871 32.0471 248.598 32.8197C250.236 32.9835 250.236 35.3708 248.598 35.5346C240.871 36.3072 234.754 42.4218 233.962 50.1456C233.795 51.7844 231.404 51.7844 231.236 50.1456C230.444 42.4218 224.327 36.3072 216.6 35.5346C214.962 35.3708 214.962 32.9835 216.6 32.8197C224.327 32.0471 230.444 25.9325 231.236 18.2087Z" fill="#DCE1FF" stroke="#1B1D1E"/>
<path d="M20.4627 117.007C20.5413 116.246 21.6527 116.246 21.7313 117.007C22.2249 121.786 26.0138 125.572 30.7965 126.047C31.5552 126.122 31.5552 127.228 30.7965 127.303C26.0138 127.778 22.2249 131.564 21.7313 136.343C21.6527 137.104 20.5413 137.104 20.4627 136.343C19.9691 131.564 16.1802 127.778 11.3975 127.303C10.6388 127.228 10.6388 126.122 11.3975 126.047C16.1802 125.572 19.9691 121.786 20.4627 117.007Z" fill="#DCE1FF" stroke="#1B1D1E"/>
<path d="M66 226V89.7732H113.415V115.671H114.831C117.308 106.092 121.229 99.0859 126.596 94.6514C132.022 90.2169 138.362 88 145.615 88C147.738 88 149.831 88.177 151.896 88.5318C154.019 88.8278 156.053 89.2708 158 89.8621V131.635C155.581 130.807 152.604 130.186 149.065 129.773C145.526 129.358 142.489 129.151 139.954 129.151C135.177 129.151 130.872 130.246 127.038 132.433C123.264 134.561 120.286 137.577 118.104 141.479C115.922 145.322 114.831 149.846 114.831 155.049V226H66Z" fill="#5B81FA"/>
<path d="M211 89V226.214H163.585V200.129H162.169C159.692 209.777 155.77 216.834 150.404 221.3C144.978 225.767 138.638 228 131.385 228C129.261 228 127.168 227.822 125.104 227.464C122.981 227.166 120.946 226.72 119 226.124V184.049C121.418 184.883 124.396 185.508 127.935 185.925C131.473 186.342 134.51 186.551 137.046 186.551C141.823 186.551 146.128 185.448 149.961 183.245C153.735 181.101 156.714 178.063 158.896 174.133C161.078 170.262 162.169 165.706 162.169 160.465V89H211Z" fill="#5B81FA"/>
<path d="M137.405 181V136H140.256V181H137.405ZM144.272 151.293C144.157 150.004 143.641 149.002 142.725 148.287C141.821 147.561 140.529 147.197 138.848 147.197C137.735 147.197 136.808 147.344 136.066 147.636C135.325 147.929 134.768 148.335 134.398 148.85C134.026 149.353 133.835 149.934 133.823 150.59C133.8 151.129 133.905 151.604 134.137 152.014C134.38 152.423 134.727 152.787 135.18 153.103C135.643 153.408 136.2 153.677 136.849 153.913C137.497 154.147 138.228 154.352 139.04 154.527L142.1 155.23C143.861 155.617 145.414 156.133 146.759 156.777C148.114 157.422 149.251 158.189 150.167 159.08C151.094 159.971 151.794 160.996 152.27 162.156C152.745 163.316 152.989 164.617 153 166.058C152.989 168.332 152.421 170.283 151.297 171.912C150.172 173.541 148.555 174.789 146.446 175.656C144.348 176.523 141.815 176.957 138.848 176.957C135.869 176.957 133.273 176.506 131.059 175.604C128.845 174.701 127.124 173.33 125.895 171.49C124.667 169.65 124.035 167.324 124 164.512H132.241C132.311 165.672 132.618 166.639 133.162 167.412C133.707 168.186 134.455 168.772 135.405 169.17C136.367 169.568 137.48 169.768 138.744 169.768C139.902 169.768 140.888 169.609 141.7 169.292C142.522 168.977 143.154 168.536 143.595 167.974C144.034 167.411 144.261 166.767 144.272 166.041C144.261 165.361 144.052 164.781 143.647 164.3C143.241 163.808 142.615 163.386 141.769 163.035C140.935 162.672 139.868 162.338 138.569 162.034L134.85 161.154C131.766 160.439 129.338 159.285 127.565 157.691C125.791 156.086 124.91 153.918 124.922 151.188C124.91 148.961 125.501 147.009 126.695 145.334C127.889 143.658 129.541 142.351 131.65 141.414C133.76 140.477 136.165 140.008 138.865 140.008C141.624 140.008 144.017 140.483 146.046 141.432C148.086 142.369 149.668 143.688 150.792 145.387C151.917 147.086 152.49 149.054 152.513 151.293H144.272Z" fill="#FED576"/>
</svg>
